<svg width="16" height="20" viewBox="0 0 16 20" fill="none" xmlns="http://www.w3.org/2000/svg">
    <path d="M15.5861 15.9161C15.5273 15.878 15.0849 15.568 14.6418 14.6303C13.8282 12.9084 13.6574 10.4827 13.6574 8.75098C13.6574 8.74344 13.6572 8.73598 13.657 8.72848C13.6481 6.43984 12.2777 4.46695 10.3166 3.58176V2.22797C10.3166 0.999453 9.31876 0 8.09228 0H7.90794C6.68146 0 5.68365 0.999453 5.68365 2.22797V3.58168C3.71599 4.46973 2.34283 6.45269 2.34283 8.75098C2.34283 10.4827 2.17204 12.9083 1.35841 14.6303C0.915404 15.568 0.472943 15.8779 0.414115 15.9161C0.166381 16.0308 0.0442325 16.2956 0.101225 16.564C0.158764 16.8351 0.412123 17.022 0.688803 17.022H4.98361C5.00759 18.6681 6.35111 20 8.00013 20C9.64915 20 10.9927 18.6681 11.0167 17.022H15.3115C15.5881 17.022 15.8415 16.8351 15.899 16.564C15.9559 16.2956 15.8338 16.0307 15.5861 15.9161ZM6.85556 2.22797C6.85556 1.64668 7.32767 1.17379 7.90798 1.17379H8.09232C8.67263 1.17379 9.14474 1.64668 9.14474 2.22797V3.20129C8.77489 3.12484 8.39204 3.08461 7.99997 3.08461C7.60802 3.08461 7.22529 3.1248 6.8556 3.20117V2.22797H6.85556ZM8.00013 18.8262C6.99728 18.8262 6.17927 18.0209 6.15548 17.022H9.84474C9.82099 18.0208 9.00298 18.8262 8.00013 18.8262ZM10.3595 15.8481C10.3594 15.8481 2.02415 15.8481 2.02415 15.8481C2.12552 15.6902 2.22869 15.5113 2.33122 15.3091C3.11654 13.7606 3.51474 11.5541 3.51474 8.75098C3.51474 6.27375 5.52681 4.2584 7.99993 4.2584C10.4731 4.2584 12.4851 6.27375 12.4851 8.75293C12.4851 8.76016 12.4852 8.76734 12.4855 8.77453C12.4877 11.5664 12.8859 13.765 13.669 15.3091C13.7716 15.5113 13.8748 15.6902 13.9761 15.8481H10.3595Z" fill="#A5ABCC" />
</svg>
