<svg width="16" height="16" viewBox="0 0 16 16" fill="none" xmlns="http://www.w3.org/2000/svg">
    <g clip-path="url(#clip0)">
        <path d="M1.36787 2.11401H14.6321C15.3398 2.11499 15.9303 2.65498 15.9943 3.35997L8.88697 9.38782C8.37758 9.82224 7.62806 9.82256 7.11835 9.38846L0.0055055 3.36563C0.0663862 2.65838 0.657868 2.11499 1.36787 2.11401ZM1.36787 13.8504C1.06849 13.8507 0.777363 13.7523 0.539669 13.5703L4.50647 9.51282C4.57998 9.43882 4.60815 9.33114 4.5803 9.23076C4.55245 9.13021 4.47295 9.05248 4.37192 9.0269C4.27072 9.00132 4.16369 9.03192 4.09148 9.10721L0.161593 13.1268C0.0553759 12.9288 -0.000161564 12.7074 3.53032e-07 12.4825V4.12146L6.74335 9.83147C7.46938 10.4495 8.53674 10.4492 9.26229 9.83033L16 4.11596V12.4825C16.0003 12.7082 15.9443 12.9304 15.8372 13.1289L11.8839 9.10657C11.7714 8.99322 11.5885 8.99209 11.4746 9.10397C11.3607 9.21602 11.3586 9.39883 11.47 9.5133L15.4587 13.5716C15.2212 13.7528 14.9308 13.8507 14.6321 13.8504H1.36787Z" fill="#8BDDD3" />
    </g>
    <defs>
        <clipPath id="clip0">
            <rect width="16" height="16" fill="white" />
        </clipPath>
    </defs>
</svg>
