<svg width="16" height="16" viewBox="0 0 16 16" fill="none" xmlns="http://www.w3.org/2000/svg">
    <path d="M9.424 11.347L7.228 10.869V10.22C7.343 10.054 7.45 9.842 7.561 9.622C7.644 9.458 7.769 9.21 7.821 9.151C8.178 8.802 8.558 8.368 8.676 7.795C8.794 7.224 8.645 6.931 8.559 6.816C8.559 6.414 8.559 5.681 8.419 5.143C8.403 4.494 8.276 4.108 7.971 3.776C7.742 3.528 7.419 3.474 7.16 3.43C7.076 3.416 6.95 3.395 6.912 3.376C6.475 3.133 6.031 3.014 5.481 3C4.371 3.042 3.007 3.749 2.55 5.017C2.42 5.377 2.42 5.915 2.432 6.531L2.431 6.775C2.351 6.932 2.202 7.225 2.32 7.795C2.438 8.369 2.818 8.803 3.172 9.149C3.227 9.211 3.354 9.46 3.438 9.625C3.55 9.844 3.657 10.055 3.772 10.22V10.869L1.576 11.347C0.663 11.544 0 12.366 0 13.301V14.5C0 14.776 0.224 15 0.5 15H10.5C10.776 15 11 14.776 11 14.5V13.301C11 12.366 10.337 11.544 9.424 11.347Z" fill="#AFA5E2" />
    <path d="M14.4338 9.501L12.2498 9.015V8.334C13.9648 8.163 14.3338 7.808 14.3338 7.333C14.3338 6.209 13.5978 3.629 13.4648 3.174C13.4478 2.504 13.3218 2.123 13.0088 1.786C12.7778 1.535 12.4508 1.48 12.1878 1.435C12.1018 1.42 11.9718 1.398 11.9298 1.377C11.4738 1.13 11.0218 1.01 10.4788 1C9.54179 1.038 8.38379 1.533 7.75879 2.543C8.05979 2.628 8.40879 2.776 8.70579 3.098C9.16379 3.597 9.37879 4.172 9.41479 5.007C9.53279 5.534 9.55479 6.138 9.55879 6.567C9.69379 6.885 9.78779 7.357 9.65579 7.998C9.49279 8.789 9.02079 9.365 8.60079 9.786C8.55479 9.869 8.49779 9.985 8.45479 10.071C8.44879 10.084 8.44179 10.095 8.43579 10.108L9.63579 10.369C10.9058 10.644 11.8428 11.726 11.9738 13H15.4998C15.7758 13 15.9998 12.776 15.9998 12.5V11.453C15.9998 10.509 15.3558 9.706 14.4338 9.501Z" fill="#AFA5E2" />
</svg>
