<svg width="20" height="20" viewBox="0 0 20 20" fill="none" xmlns="http://www.w3.org/2000/svg">
    <path d="M11.8749 15C15.6657 15 18.75 11.9157 18.75 8.12507C18.75 4.33433 15.6657 1.25 11.8749 1.25C8.08432 1.25 5 4.33433 5 8.12507C5 11.9157 8.08432 15 11.8749 15ZM11.8749 2.33553C15.0671 2.33553 17.6645 4.93288 17.6645 8.12507C17.6645 11.3173 15.0671 13.9145 11.8749 13.9145C8.68274 13.9145 6.08553 11.3173 6.08553 8.12507C6.08553 4.93288 8.68274 2.33553 11.8749 2.33553Z" fill="#7D84AB" stroke="#7D84AB" stroke-width="0.6" />
    <path d="M1.76787 18.75C1.90036 18.75 2.03273 18.6996 2.13353 18.5983L7.34843 13.3835C7.55052 13.1814 7.55052 12.8538 7.34843 12.6516C7.14634 12.4495 6.81869 12.4495 6.6166 12.6516L1.40157 17.8664C1.19948 18.0685 1.19948 18.3961 1.40157 18.5983C1.503 18.6996 1.63537 18.75 1.76787 18.75Z" fill="#7D84AB" stroke="#7D84AB" stroke-width="0.6" />
</svg>
