<svg width="16" height="16" viewBox="0 0 16 16" fill="none" xmlns="http://www.w3.org/2000/svg">
    <path d="M7.99998 0C3.58172 0 0 3.58172 0 7.99998C0 12.4183 3.58172 16 7.99998 16C12.4183 16 16 12.4183 16 7.99998C15.9953 3.58369 12.4163 0.00472098 7.99998 0ZM7.99998 14.8571C4.21289 14.8571 1.14285 11.7871 1.14285 7.99998C1.14285 4.21289 4.21289 1.14285 7.99998 1.14285C11.7871 1.14285 14.8571 4.21289 14.8571 7.99998C14.853 11.7854 11.7854 14.853 7.99998 14.8571Z" fill="#B0D680" />
    <path d="M8.00012 12.5714C10.5248 12.5714 12.5715 10.5247 12.5715 8C12.5715 5.47528 10.5248 3.42859 8.00012 3.42859C5.4754 3.42859 3.42871 5.47528 3.42871 8C3.42871 10.5247 5.4754 12.5714 8.00012 12.5714Z" fill="#B0D680" />
</svg>
