<svg width="16" height="16" viewBox="0 0 16 16" fill="none" xmlns="http://www.w3.org/2000/svg">
    <path d="M12.6667 2H10.6667V1.33334C10.6667 0.597969 10.0684 0 9.33334 0H6.66669C5.93166 0 5.33334 0.597969 5.33334 1.33334V2H3.33334C2.59831 2 2 2.59797 2 3.33334V4.33334C2 4.51759 2.14909 4.66669 2.33334 4.66669H13.6667C13.8509 4.66669 14 4.51759 14 4.33334V3.33334C14 2.59797 13.4017 2 12.6667 2ZM9.33334 2H6.66669V1.33334H9.33334V2Z" fill="#B7C2D0" />
    <path d="M12.9998 5.33337H2.99985C2.8156 5.33337 2.6665 5.48247 2.6665 5.66672V14.6667C2.6665 15.4021 3.26482 16 3.99985 16H11.9998C12.7349 16 13.3332 15.4021 13.3332 14.6667V5.66669C13.3332 5.48247 13.1841 5.33337 12.9998 5.33337Z" fill="#B7C2D0" />
</svg>
