<svg width="16" height="16" viewBox="0 0 16 16" fill="none" xmlns="http://www.w3.org/2000/svg">
    <g clip-path="url(#clip0)">
        <path d="M10.5341 0.056665C10.3353 -0.0381881 10.101 -0.0130463 9.92958 0.125234L4.37096 4.5719H1.71507C1.08539 4.5719 0.572266 5.08502 0.572266 5.71471V10.2859C0.572266 10.9168 1.08539 11.4288 1.71507 11.4288H4.37096L9.92844 15.8754C10.0324 15.9577 10.1593 16 10.2861 16C10.3707 16 10.4553 15.9806 10.5341 15.9428C10.7318 15.848 10.8575 15.648 10.8575 15.4286V0.572072C10.8575 0.352652 10.7318 0.152661 10.5341 0.056665Z" fill="#4886FF" />
        <path d="M13.7492 3.95936C13.5241 3.73765 13.1629 3.74108 12.9412 3.96393C12.7195 4.18906 12.7218 4.55019 12.9458 4.77304C13.8098 5.62557 14.2852 6.77181 14.2852 8.00033C14.2852 9.22885 13.8098 10.3751 12.9458 11.2276C12.7218 11.4482 12.7195 11.8105 12.9412 12.0356C13.0532 12.1487 13.2006 12.2047 13.3469 12.2047C13.4921 12.2047 13.6372 12.1499 13.7492 12.039C14.8326 10.9728 15.428 9.53741 15.428 8.00033C15.428 6.46325 14.8326 5.02788 13.7492 3.95936Z" fill="#4886FF" />
    </g>
    <defs>
        <clipPath id="clip0">
            <rect width="16" height="16" fill="white" />
        </clipPath>
    </defs>
</svg>
